<svg id="Ebene_1" data-name="Ebene 1" xmlns="http://www.w3.org/2000/svg" viewBox="0 0 900 415.34"><defs><style>.cls-1{fill:#207346;}.cls-2{fill:#fff;}.cls-3{fill:#227446;}</style></defs><rect class="cls-1" width="900" height="415.34"/><path id="path10" class="cls-2" d="M322.53,79.29l17.78-3.05v27c30,0,59.92.06,89.89-.09,5.05.21,10.62-.14,15,2.88,3.09,4.43,2.73,10.06,2.94,15.14q-.23,78-.06,155.83c-.15,8.71.8,17.6-1,26.19-1.2,6.23-8.68,6.38-13.68,6.59-31,.09-62-.06-93.09,0v30.28l-18.59-3.34c-45.61-8.3-91.32-16-137-23.95V103.26C230.67,95.27,276.61,87.4,322.53,79.29Z"/><path id="path48" class="cls-3" d="M340.31,112.21h98.78V300.79H340.31v-18h23.95V261.88H340.31v-12h23.95V229H340.31V217h23.95V196H340.31v-12h23.95v-21H340.31v-12h23.95v-21H340.31Z"/><path id="path58" class="cls-2" d="M376.23,130.17h41.9v21h-41.9Z"/><path id="path72" class="cls-3" d="M273.38,158.22q10.15-.72,20.36-1.23-12,24.57-24.16,49.06c8.23,16.76,16.64,33.41,24.9,50.17-7.21-.42-14.39-.87-21.61-1.38-5.09-12.48-11.28-24.54-14.93-37.59-4.07,12.15-9.88,23.61-14.55,35.53-6.56-.09-13.11-.36-19.67-.63,7.7-15.06,15.12-30.23,23.05-45.2-6.73-15.42-14.13-30.53-21.07-45.86q9.87-.59,19.75-1.13c4.46,11.7,9.34,23.25,13,35.26C262.43,182.5,268.32,170.52,273.38,158.22Z"/><path id="path90" class="cls-2" d="M376.23,163.1h41.9v21h-41.9Z"/><path id="path108" class="cls-2" d="M376.23,196h41.9v21h-41.9Z"/><path id="path114" class="cls-2" d="M376.23,229h41.9v21h-41.9Z"/><path id="path120" class="cls-2" d="M376.23,261.88h41.9v20.95h-41.9Z"/><path class="cls-2" d="M561.61,248.4H521.89V170.68h38v8.24H530.67v25.85h27.07V213H530.67v27.15h30.94Z"/><path class="cls-2" d="M611.27,192.9,592.62,221l18.32,27.42H600.65l-10.9-18-2.44-4.23h-.21L573.44,248.4H563.25l18.86-27.21L564,192.9h10.3q11.64,20.49,13.11,23.31h.22l13.87-23.31Z"/><path class="cls-2" d="M653.35,245.86a28.85,28.85,0,0,1-15.23,3.9,26.75,26.75,0,0,1-13.63-3.5,24.11,24.11,0,0,1-9.4-9.89A30.39,30.39,0,0,1,611.73,222q0-13.77,7.89-22.12t21-8.34a28.09,28.09,0,0,1,12.84,2.82v9.1a22.74,22.74,0,0,0-13.22-4.33,17.74,17.74,0,0,0-14,6.15q-5.4,6.15-5.39,15.9T626,236.53q5.12,5.64,13.74,5.64a22.41,22.41,0,0,0,13.65-4.77Z"/><path class="cls-2" d="M704.42,222.88H665.23q.22,9.38,5,14.33t13.15,5a27.2,27.2,0,0,0,17.18-6.07v8.29q-7.26,5.37-19.3,5.37-11.87,0-18.53-7.67T656,220.87a33.73,33.73,0,0,1,3.33-15,25.55,25.55,0,0,1,9.19-10.54,23.6,23.6,0,0,1,13-3.74q10.79,0,16.83,7t6,19.64Zm-9.11-7.54q-.1-7.69-3.71-12t-10.16-4.25a14.33,14.33,0,0,0-10.57,4.44,20.72,20.72,0,0,0-5.53,11.76Z"/><path class="cls-2" d="M719.77,248.4h-8.89V166.24h8.89Z"/></svg>